<mxfile host="app.diagrams.net" modified="2021-10-19T09:14:44.925Z" agent="5.0 (Windows)" etag="ItqWh-6g75d1rOsxnRU0" version="15.5.2" type="github">
  <diagram id="piDafpqhtRUU5qUU-vj8" name="Page-1">
    <mxGraphModel dx="2889" dy="1150" grid="1" gridSize="10" guides="1" tooltips="1" connect="1" arrows="1" fold="1" page="1" pageScale="1" pageWidth="827" pageHeight="1169" math="0" shadow="0">
      <root>
        <mxCell id="0" />
        <mxCell id="1" parent="0" />
        <mxCell id="8962rQQDY3VNNf6We3Pp-1" value="retlkjlkdfdfsdfsdfsdfsdfsdfsdf" style="strokeWidth=1;shadow=0;dashed=0;align=center;html=1;shape=mxgraph.mockup.containers.browserWindow;rSize=0;strokeColor2=#008cff;strokeColor3=#c4c4c4;mainText=,;recursiveResize=0;strokeColor=#FFFFFF;fontColor=#FFFFFF;" parent="1" vertex="1">
          <mxGeometry x="-573" y="48" width="613" height="1032" as="geometry" />
        </mxCell>
        <mxCell id="8962rQQDY3VNNf6We3Pp-36" value="" style="shape=image;html=1;verticalAlign=top;verticalLabelPosition=bottom;labelBackgroundColor=#ffffff;imageAspect=0;aspect=fixed;image=https://cdn3.iconfinder.com/data/icons/peelicons-vol-1/50/LinkedIn-128.png;fillColor=#008CFF;fontSize=13;fontColor=#0066CC;" parent="8962rQQDY3VNNf6We3Pp-1" vertex="1">
          <mxGeometry x="870" y="1235" width="30" height="30" as="geometry" />
        </mxCell>
        <mxCell id="8962rQQDY3VNNf6We3Pp-37" value="" style="shape=image;html=1;verticalAlign=top;verticalLabelPosition=bottom;labelBackgroundColor=#ffffff;imageAspect=0;aspect=fixed;image=https://cdn3.iconfinder.com/data/icons/peelicons-vol-1/50/Facebook-128.png;fillColor=#008CFF;fontSize=13;fontColor=#0066CC;" parent="8962rQQDY3VNNf6We3Pp-1" vertex="1">
          <mxGeometry x="920" y="1235" width="30" height="30" as="geometry" />
        </mxCell>
        <mxCell id="8962rQQDY3VNNf6We3Pp-38" value="" style="shape=image;html=1;verticalAlign=top;verticalLabelPosition=bottom;labelBackgroundColor=#ffffff;imageAspect=0;aspect=fixed;image=https://cdn3.iconfinder.com/data/icons/peelicons-vol-1/50/Twitter-128.png;fillColor=#008CFF;fontSize=13;fontColor=#0066CC;" parent="8962rQQDY3VNNf6We3Pp-1" vertex="1">
          <mxGeometry x="970" y="1235" width="30" height="30" as="geometry" />
        </mxCell>
        <mxCell id="zB7duXIGs6mjrtSok1Mn-2" value="Scores" style="shape=table;startSize=30;container=1;collapsible=0;childLayout=tableLayout;fontStyle=1;align=center;pointerEvents=1;gradientColor=none;labelBorderColor=none;" parent="8962rQQDY3VNNf6We3Pp-1" vertex="1">
          <mxGeometry x="122" y="212" width="190.25" height="780" as="geometry" />
        </mxCell>
        <mxCell id="zB7duXIGs6mjrtSok1Mn-3" value="" style="shape=partialRectangle;html=1;whiteSpace=wrap;collapsible=0;dropTarget=0;pointerEvents=0;fillColor=none;top=0;left=0;bottom=0;right=0;points=[[0,0.5],[1,0.5]];portConstraint=eastwest;" parent="zB7duXIGs6mjrtSok1Mn-2" vertex="1">
          <mxGeometry y="30" width="190.25" height="50" as="geometry" />
        </mxCell>
        <mxCell id="zB7duXIGs6mjrtSok1Mn-4" value="Hole&lt;br&gt;&lt;span style=&quot;white-space: pre&quot;&gt;&lt;/span&gt;&lt;span style=&quot;white-space: pre&quot;&gt;&lt;/span&gt;&lt;span style=&quot;white-space: pre&quot;&gt;&lt;/span&gt;&lt;span style=&quot;white-space: pre&quot;&gt;&lt;/span&gt;" style="shape=partialRectangle;html=1;whiteSpace=wrap;connectable=0;fillColor=none;top=0;left=0;bottom=0;right=0;overflow=hidden;pointerEvents=1;" parent="zB7duXIGs6mjrtSok1Mn-3" vertex="1">
          <mxGeometry width="47" height="50" as="geometry">
            <mxRectangle width="47" height="50" as="alternateBounds" />
          </mxGeometry>
        </mxCell>
        <mxCell id="zB7duXIGs6mjrtSok1Mn-5" value="Par" style="shape=partialRectangle;html=1;whiteSpace=wrap;connectable=0;fillColor=none;top=0;left=0;bottom=0;right=0;overflow=hidden;pointerEvents=1;" parent="zB7duXIGs6mjrtSok1Mn-3" vertex="1">
          <mxGeometry x="47" width="47" height="50" as="geometry">
            <mxRectangle width="47" height="50" as="alternateBounds" />
          </mxGeometry>
        </mxCell>
        <mxCell id="zB7duXIGs6mjrtSok1Mn-6" value="Score" style="shape=partialRectangle;html=1;whiteSpace=wrap;connectable=0;fillColor=none;top=0;left=0;bottom=0;right=0;overflow=hidden;pointerEvents=1;" parent="zB7duXIGs6mjrtSok1Mn-3" vertex="1">
          <mxGeometry x="94" width="48" height="50" as="geometry">
            <mxRectangle width="48" height="50" as="alternateBounds" />
          </mxGeometry>
        </mxCell>
        <mxCell id="zB7duXIGs6mjrtSok1Mn-70" value="Over" style="shape=partialRectangle;html=1;whiteSpace=wrap;connectable=0;fillColor=none;top=0;left=0;bottom=0;right=0;overflow=hidden;pointerEvents=1;" parent="zB7duXIGs6mjrtSok1Mn-3" vertex="1">
          <mxGeometry x="142" width="48" height="50" as="geometry">
            <mxRectangle width="48" height="50" as="alternateBounds" />
          </mxGeometry>
        </mxCell>
        <mxCell id="zB7duXIGs6mjrtSok1Mn-7" value="" style="shape=partialRectangle;html=1;whiteSpace=wrap;collapsible=0;dropTarget=0;pointerEvents=0;fillColor=none;top=0;left=0;bottom=0;right=0;points=[[0,0.5],[1,0.5]];portConstraint=eastwest;" parent="zB7duXIGs6mjrtSok1Mn-2" vertex="1">
          <mxGeometry y="80" width="190.25" height="50" as="geometry" />
        </mxCell>
        <mxCell id="zB7duXIGs6mjrtSok1Mn-8" value="1" style="shape=partialRectangle;html=1;whiteSpace=wrap;connectable=0;fillColor=none;top=0;left=0;bottom=0;right=0;overflow=hidden;pointerEvents=1;" parent="zB7duXIGs6mjrtSok1Mn-7" vertex="1">
          <mxGeometry width="47" height="50" as="geometry">
            <mxRectangle width="47" height="50" as="alternateBounds" />
          </mxGeometry>
        </mxCell>
        <mxCell id="zB7duXIGs6mjrtSok1Mn-9" value="" style="shape=partialRectangle;html=1;whiteSpace=wrap;connectable=0;fillColor=none;top=0;left=0;bottom=0;right=0;overflow=hidden;pointerEvents=1;" parent="zB7duXIGs6mjrtSok1Mn-7" vertex="1">
          <mxGeometry x="47" width="47" height="50" as="geometry">
            <mxRectangle width="47" height="50" as="alternateBounds" />
          </mxGeometry>
        </mxCell>
        <mxCell id="zB7duXIGs6mjrtSok1Mn-10" value="" style="shape=partialRectangle;html=1;whiteSpace=wrap;connectable=0;fillColor=none;top=0;left=0;bottom=0;right=0;overflow=hidden;pointerEvents=1;" parent="zB7duXIGs6mjrtSok1Mn-7" vertex="1">
          <mxGeometry x="94" width="48" height="50" as="geometry">
            <mxRectangle width="48" height="50" as="alternateBounds" />
          </mxGeometry>
        </mxCell>
        <mxCell id="zB7duXIGs6mjrtSok1Mn-71" style="shape=partialRectangle;html=1;whiteSpace=wrap;connectable=0;fillColor=none;top=0;left=0;bottom=0;right=0;overflow=hidden;pointerEvents=1;" parent="zB7duXIGs6mjrtSok1Mn-7" vertex="1">
          <mxGeometry x="142" width="48" height="50" as="geometry">
            <mxRectangle width="48" height="50" as="alternateBounds" />
          </mxGeometry>
        </mxCell>
        <mxCell id="zB7duXIGs6mjrtSok1Mn-11" value="" style="shape=partialRectangle;html=1;whiteSpace=wrap;collapsible=0;dropTarget=0;pointerEvents=0;fillColor=none;top=0;left=0;bottom=0;right=0;points=[[0,0.5],[1,0.5]];portConstraint=eastwest;" parent="zB7duXIGs6mjrtSok1Mn-2" vertex="1">
          <mxGeometry y="130" width="190.25" height="50" as="geometry" />
        </mxCell>
        <mxCell id="zB7duXIGs6mjrtSok1Mn-12" value="2" style="shape=partialRectangle;html=1;whiteSpace=wrap;connectable=0;fillColor=none;top=0;left=0;bottom=0;right=0;overflow=hidden;pointerEvents=1;" parent="zB7duXIGs6mjrtSok1Mn-11" vertex="1">
          <mxGeometry width="47" height="50" as="geometry">
            <mxRectangle width="47" height="50" as="alternateBounds" />
          </mxGeometry>
        </mxCell>
        <mxCell id="zB7duXIGs6mjrtSok1Mn-13" value="" style="shape=partialRectangle;html=1;whiteSpace=wrap;connectable=0;fillColor=none;top=0;left=0;bottom=0;right=0;overflow=hidden;pointerEvents=1;" parent="zB7duXIGs6mjrtSok1Mn-11" vertex="1">
          <mxGeometry x="47" width="47" height="50" as="geometry">
            <mxRectangle width="47" height="50" as="alternateBounds" />
          </mxGeometry>
        </mxCell>
        <mxCell id="zB7duXIGs6mjrtSok1Mn-14" value="" style="shape=partialRectangle;html=1;whiteSpace=wrap;connectable=0;fillColor=none;top=0;left=0;bottom=0;right=0;overflow=hidden;pointerEvents=1;" parent="zB7duXIGs6mjrtSok1Mn-11" vertex="1">
          <mxGeometry x="94" width="48" height="50" as="geometry">
            <mxRectangle width="48" height="50" as="alternateBounds" />
          </mxGeometry>
        </mxCell>
        <mxCell id="zB7duXIGs6mjrtSok1Mn-72" style="shape=partialRectangle;html=1;whiteSpace=wrap;connectable=0;fillColor=none;top=0;left=0;bottom=0;right=0;overflow=hidden;pointerEvents=1;" parent="zB7duXIGs6mjrtSok1Mn-11" vertex="1">
          <mxGeometry x="142" width="48" height="50" as="geometry">
            <mxRectangle width="48" height="50" as="alternateBounds" />
          </mxGeometry>
        </mxCell>
        <mxCell id="zB7duXIGs6mjrtSok1Mn-15" style="shape=partialRectangle;html=1;whiteSpace=wrap;collapsible=0;dropTarget=0;pointerEvents=0;fillColor=none;top=0;left=0;bottom=0;right=0;points=[[0,0.5],[1,0.5]];portConstraint=eastwest;" parent="zB7duXIGs6mjrtSok1Mn-2" vertex="1">
          <mxGeometry y="180" width="190.25" height="50" as="geometry" />
        </mxCell>
        <mxCell id="zB7duXIGs6mjrtSok1Mn-16" value="3" style="shape=partialRectangle;html=1;whiteSpace=wrap;connectable=0;fillColor=none;top=0;left=0;bottom=0;right=0;overflow=hidden;pointerEvents=1;" parent="zB7duXIGs6mjrtSok1Mn-15" vertex="1">
          <mxGeometry width="47" height="50" as="geometry">
            <mxRectangle width="47" height="50" as="alternateBounds" />
          </mxGeometry>
        </mxCell>
        <mxCell id="zB7duXIGs6mjrtSok1Mn-17" style="shape=partialRectangle;html=1;whiteSpace=wrap;connectable=0;fillColor=none;top=0;left=0;bottom=0;right=0;overflow=hidden;pointerEvents=1;" parent="zB7duXIGs6mjrtSok1Mn-15" vertex="1">
          <mxGeometry x="47" width="47" height="50" as="geometry">
            <mxRectangle width="47" height="50" as="alternateBounds" />
          </mxGeometry>
        </mxCell>
        <mxCell id="zB7duXIGs6mjrtSok1Mn-18" style="shape=partialRectangle;html=1;whiteSpace=wrap;connectable=0;fillColor=none;top=0;left=0;bottom=0;right=0;overflow=hidden;pointerEvents=1;" parent="zB7duXIGs6mjrtSok1Mn-15" vertex="1">
          <mxGeometry x="94" width="48" height="50" as="geometry">
            <mxRectangle width="48" height="50" as="alternateBounds" />
          </mxGeometry>
        </mxCell>
        <mxCell id="zB7duXIGs6mjrtSok1Mn-73" style="shape=partialRectangle;html=1;whiteSpace=wrap;connectable=0;fillColor=none;top=0;left=0;bottom=0;right=0;overflow=hidden;pointerEvents=1;" parent="zB7duXIGs6mjrtSok1Mn-15" vertex="1">
          <mxGeometry x="142" width="48" height="50" as="geometry">
            <mxRectangle width="48" height="50" as="alternateBounds" />
          </mxGeometry>
        </mxCell>
        <mxCell id="zB7duXIGs6mjrtSok1Mn-19" style="shape=partialRectangle;html=1;whiteSpace=wrap;collapsible=0;dropTarget=0;pointerEvents=0;fillColor=none;top=0;left=0;bottom=0;right=0;points=[[0,0.5],[1,0.5]];portConstraint=eastwest;" parent="zB7duXIGs6mjrtSok1Mn-2" vertex="1">
          <mxGeometry y="230" width="190.25" height="50" as="geometry" />
        </mxCell>
        <mxCell id="zB7duXIGs6mjrtSok1Mn-20" value="4" style="shape=partialRectangle;html=1;whiteSpace=wrap;connectable=0;fillColor=none;top=0;left=0;bottom=0;right=0;overflow=hidden;pointerEvents=1;" parent="zB7duXIGs6mjrtSok1Mn-19" vertex="1">
          <mxGeometry width="47" height="50" as="geometry">
            <mxRectangle width="47" height="50" as="alternateBounds" />
          </mxGeometry>
        </mxCell>
        <mxCell id="zB7duXIGs6mjrtSok1Mn-21" style="shape=partialRectangle;html=1;whiteSpace=wrap;connectable=0;fillColor=none;top=0;left=0;bottom=0;right=0;overflow=hidden;pointerEvents=1;" parent="zB7duXIGs6mjrtSok1Mn-19" vertex="1">
          <mxGeometry x="47" width="47" height="50" as="geometry">
            <mxRectangle width="47" height="50" as="alternateBounds" />
          </mxGeometry>
        </mxCell>
        <mxCell id="zB7duXIGs6mjrtSok1Mn-22" style="shape=partialRectangle;html=1;whiteSpace=wrap;connectable=0;fillColor=none;top=0;left=0;bottom=0;right=0;overflow=hidden;pointerEvents=1;" parent="zB7duXIGs6mjrtSok1Mn-19" vertex="1">
          <mxGeometry x="94" width="48" height="50" as="geometry">
            <mxRectangle width="48" height="50" as="alternateBounds" />
          </mxGeometry>
        </mxCell>
        <mxCell id="zB7duXIGs6mjrtSok1Mn-74" style="shape=partialRectangle;html=1;whiteSpace=wrap;connectable=0;fillColor=none;top=0;left=0;bottom=0;right=0;overflow=hidden;pointerEvents=1;" parent="zB7duXIGs6mjrtSok1Mn-19" vertex="1">
          <mxGeometry x="142" width="48" height="50" as="geometry">
            <mxRectangle width="48" height="50" as="alternateBounds" />
          </mxGeometry>
        </mxCell>
        <mxCell id="zB7duXIGs6mjrtSok1Mn-23" style="shape=partialRectangle;html=1;whiteSpace=wrap;collapsible=0;dropTarget=0;pointerEvents=0;fillColor=none;top=0;left=0;bottom=0;right=0;points=[[0,0.5],[1,0.5]];portConstraint=eastwest;" parent="zB7duXIGs6mjrtSok1Mn-2" vertex="1">
          <mxGeometry y="280" width="190.25" height="50" as="geometry" />
        </mxCell>
        <mxCell id="zB7duXIGs6mjrtSok1Mn-24" value="5" style="shape=partialRectangle;html=1;whiteSpace=wrap;connectable=0;fillColor=none;top=0;left=0;bottom=0;right=0;overflow=hidden;pointerEvents=1;" parent="zB7duXIGs6mjrtSok1Mn-23" vertex="1">
          <mxGeometry width="47" height="50" as="geometry">
            <mxRectangle width="47" height="50" as="alternateBounds" />
          </mxGeometry>
        </mxCell>
        <mxCell id="zB7duXIGs6mjrtSok1Mn-25" style="shape=partialRectangle;html=1;whiteSpace=wrap;connectable=0;fillColor=none;top=0;left=0;bottom=0;right=0;overflow=hidden;pointerEvents=1;" parent="zB7duXIGs6mjrtSok1Mn-23" vertex="1">
          <mxGeometry x="47" width="47" height="50" as="geometry">
            <mxRectangle width="47" height="50" as="alternateBounds" />
          </mxGeometry>
        </mxCell>
        <mxCell id="zB7duXIGs6mjrtSok1Mn-26" style="shape=partialRectangle;html=1;whiteSpace=wrap;connectable=0;fillColor=none;top=0;left=0;bottom=0;right=0;overflow=hidden;pointerEvents=1;" parent="zB7duXIGs6mjrtSok1Mn-23" vertex="1">
          <mxGeometry x="94" width="48" height="50" as="geometry">
            <mxRectangle width="48" height="50" as="alternateBounds" />
          </mxGeometry>
        </mxCell>
        <mxCell id="zB7duXIGs6mjrtSok1Mn-75" style="shape=partialRectangle;html=1;whiteSpace=wrap;connectable=0;fillColor=none;top=0;left=0;bottom=0;right=0;overflow=hidden;pointerEvents=1;" parent="zB7duXIGs6mjrtSok1Mn-23" vertex="1">
          <mxGeometry x="142" width="48" height="50" as="geometry">
            <mxRectangle width="48" height="50" as="alternateBounds" />
          </mxGeometry>
        </mxCell>
        <mxCell id="zB7duXIGs6mjrtSok1Mn-27" style="shape=partialRectangle;html=1;whiteSpace=wrap;collapsible=0;dropTarget=0;pointerEvents=0;fillColor=none;top=0;left=0;bottom=0;right=0;points=[[0,0.5],[1,0.5]];portConstraint=eastwest;" parent="zB7duXIGs6mjrtSok1Mn-2" vertex="1">
          <mxGeometry y="330" width="190.25" height="50" as="geometry" />
        </mxCell>
        <mxCell id="zB7duXIGs6mjrtSok1Mn-28" value="6" style="shape=partialRectangle;html=1;whiteSpace=wrap;connectable=0;fillColor=none;top=0;left=0;bottom=0;right=0;overflow=hidden;pointerEvents=1;" parent="zB7duXIGs6mjrtSok1Mn-27" vertex="1">
          <mxGeometry width="47" height="50" as="geometry">
            <mxRectangle width="47" height="50" as="alternateBounds" />
          </mxGeometry>
        </mxCell>
        <mxCell id="zB7duXIGs6mjrtSok1Mn-29" style="shape=partialRectangle;html=1;whiteSpace=wrap;connectable=0;fillColor=none;top=0;left=0;bottom=0;right=0;overflow=hidden;pointerEvents=1;" parent="zB7duXIGs6mjrtSok1Mn-27" vertex="1">
          <mxGeometry x="47" width="47" height="50" as="geometry">
            <mxRectangle width="47" height="50" as="alternateBounds" />
          </mxGeometry>
        </mxCell>
        <mxCell id="zB7duXIGs6mjrtSok1Mn-30" style="shape=partialRectangle;html=1;whiteSpace=wrap;connectable=0;fillColor=none;top=0;left=0;bottom=0;right=0;overflow=hidden;pointerEvents=1;" parent="zB7duXIGs6mjrtSok1Mn-27" vertex="1">
          <mxGeometry x="94" width="48" height="50" as="geometry">
            <mxRectangle width="48" height="50" as="alternateBounds" />
          </mxGeometry>
        </mxCell>
        <mxCell id="zB7duXIGs6mjrtSok1Mn-76" style="shape=partialRectangle;html=1;whiteSpace=wrap;connectable=0;fillColor=none;top=0;left=0;bottom=0;right=0;overflow=hidden;pointerEvents=1;" parent="zB7duXIGs6mjrtSok1Mn-27" vertex="1">
          <mxGeometry x="142" width="48" height="50" as="geometry">
            <mxRectangle width="48" height="50" as="alternateBounds" />
          </mxGeometry>
        </mxCell>
        <mxCell id="zB7duXIGs6mjrtSok1Mn-31" style="shape=partialRectangle;html=1;whiteSpace=wrap;collapsible=0;dropTarget=0;pointerEvents=0;fillColor=none;top=0;left=0;bottom=0;right=0;points=[[0,0.5],[1,0.5]];portConstraint=eastwest;" parent="zB7duXIGs6mjrtSok1Mn-2" vertex="1">
          <mxGeometry y="380" width="190.25" height="50" as="geometry" />
        </mxCell>
        <mxCell id="zB7duXIGs6mjrtSok1Mn-32" value="7" style="shape=partialRectangle;html=1;whiteSpace=wrap;connectable=0;fillColor=none;top=0;left=0;bottom=0;right=0;overflow=hidden;pointerEvents=1;" parent="zB7duXIGs6mjrtSok1Mn-31" vertex="1">
          <mxGeometry width="47" height="50" as="geometry">
            <mxRectangle width="47" height="50" as="alternateBounds" />
          </mxGeometry>
        </mxCell>
        <mxCell id="zB7duXIGs6mjrtSok1Mn-33" style="shape=partialRectangle;html=1;whiteSpace=wrap;connectable=0;fillColor=none;top=0;left=0;bottom=0;right=0;overflow=hidden;pointerEvents=1;" parent="zB7duXIGs6mjrtSok1Mn-31" vertex="1">
          <mxGeometry x="47" width="47" height="50" as="geometry">
            <mxRectangle width="47" height="50" as="alternateBounds" />
          </mxGeometry>
        </mxCell>
        <mxCell id="zB7duXIGs6mjrtSok1Mn-34" style="shape=partialRectangle;html=1;whiteSpace=wrap;connectable=0;fillColor=none;top=0;left=0;bottom=0;right=0;overflow=hidden;pointerEvents=1;" parent="zB7duXIGs6mjrtSok1Mn-31" vertex="1">
          <mxGeometry x="94" width="48" height="50" as="geometry">
            <mxRectangle width="48" height="50" as="alternateBounds" />
          </mxGeometry>
        </mxCell>
        <mxCell id="zB7duXIGs6mjrtSok1Mn-77" style="shape=partialRectangle;html=1;whiteSpace=wrap;connectable=0;fillColor=none;top=0;left=0;bottom=0;right=0;overflow=hidden;pointerEvents=1;" parent="zB7duXIGs6mjrtSok1Mn-31" vertex="1">
          <mxGeometry x="142" width="48" height="50" as="geometry">
            <mxRectangle width="48" height="50" as="alternateBounds" />
          </mxGeometry>
        </mxCell>
        <mxCell id="zB7duXIGs6mjrtSok1Mn-35" style="shape=partialRectangle;html=1;whiteSpace=wrap;collapsible=0;dropTarget=0;pointerEvents=0;fillColor=none;top=0;left=0;bottom=0;right=0;points=[[0,0.5],[1,0.5]];portConstraint=eastwest;" parent="zB7duXIGs6mjrtSok1Mn-2" vertex="1">
          <mxGeometry y="430" width="190.25" height="50" as="geometry" />
        </mxCell>
        <mxCell id="zB7duXIGs6mjrtSok1Mn-36" value="8" style="shape=partialRectangle;html=1;whiteSpace=wrap;connectable=0;fillColor=none;top=0;left=0;bottom=0;right=0;overflow=hidden;pointerEvents=1;" parent="zB7duXIGs6mjrtSok1Mn-35" vertex="1">
          <mxGeometry width="47" height="50" as="geometry">
            <mxRectangle width="47" height="50" as="alternateBounds" />
          </mxGeometry>
        </mxCell>
        <mxCell id="zB7duXIGs6mjrtSok1Mn-37" style="shape=partialRectangle;html=1;whiteSpace=wrap;connectable=0;fillColor=none;top=0;left=0;bottom=0;right=0;overflow=hidden;pointerEvents=1;" parent="zB7duXIGs6mjrtSok1Mn-35" vertex="1">
          <mxGeometry x="47" width="47" height="50" as="geometry">
            <mxRectangle width="47" height="50" as="alternateBounds" />
          </mxGeometry>
        </mxCell>
        <mxCell id="zB7duXIGs6mjrtSok1Mn-38" style="shape=partialRectangle;html=1;whiteSpace=wrap;connectable=0;fillColor=none;top=0;left=0;bottom=0;right=0;overflow=hidden;pointerEvents=1;" parent="zB7duXIGs6mjrtSok1Mn-35" vertex="1">
          <mxGeometry x="94" width="48" height="50" as="geometry">
            <mxRectangle width="48" height="50" as="alternateBounds" />
          </mxGeometry>
        </mxCell>
        <mxCell id="zB7duXIGs6mjrtSok1Mn-78" style="shape=partialRectangle;html=1;whiteSpace=wrap;connectable=0;fillColor=none;top=0;left=0;bottom=0;right=0;overflow=hidden;pointerEvents=1;" parent="zB7duXIGs6mjrtSok1Mn-35" vertex="1">
          <mxGeometry x="142" width="48" height="50" as="geometry">
            <mxRectangle width="48" height="50" as="alternateBounds" />
          </mxGeometry>
        </mxCell>
        <mxCell id="zB7duXIGs6mjrtSok1Mn-39" style="shape=partialRectangle;html=1;whiteSpace=wrap;collapsible=0;dropTarget=0;pointerEvents=0;fillColor=none;top=0;left=0;bottom=0;right=0;points=[[0,0.5],[1,0.5]];portConstraint=eastwest;" parent="zB7duXIGs6mjrtSok1Mn-2" vertex="1">
          <mxGeometry y="480" width="190.25" height="50" as="geometry" />
        </mxCell>
        <mxCell id="zB7duXIGs6mjrtSok1Mn-40" value="9" style="shape=partialRectangle;html=1;whiteSpace=wrap;connectable=0;fillColor=none;top=0;left=0;bottom=0;right=0;overflow=hidden;pointerEvents=1;" parent="zB7duXIGs6mjrtSok1Mn-39" vertex="1">
          <mxGeometry width="47" height="50" as="geometry">
            <mxRectangle width="47" height="50" as="alternateBounds" />
          </mxGeometry>
        </mxCell>
        <mxCell id="zB7duXIGs6mjrtSok1Mn-41" style="shape=partialRectangle;html=1;whiteSpace=wrap;connectable=0;fillColor=none;top=0;left=0;bottom=0;right=0;overflow=hidden;pointerEvents=1;" parent="zB7duXIGs6mjrtSok1Mn-39" vertex="1">
          <mxGeometry x="47" width="47" height="50" as="geometry">
            <mxRectangle width="47" height="50" as="alternateBounds" />
          </mxGeometry>
        </mxCell>
        <mxCell id="zB7duXIGs6mjrtSok1Mn-42" style="shape=partialRectangle;html=1;whiteSpace=wrap;connectable=0;fillColor=none;top=0;left=0;bottom=0;right=0;overflow=hidden;pointerEvents=1;" parent="zB7duXIGs6mjrtSok1Mn-39" vertex="1">
          <mxGeometry x="94" width="48" height="50" as="geometry">
            <mxRectangle width="48" height="50" as="alternateBounds" />
          </mxGeometry>
        </mxCell>
        <mxCell id="zB7duXIGs6mjrtSok1Mn-79" style="shape=partialRectangle;html=1;whiteSpace=wrap;connectable=0;fillColor=none;top=0;left=0;bottom=0;right=0;overflow=hidden;pointerEvents=1;" parent="zB7duXIGs6mjrtSok1Mn-39" vertex="1">
          <mxGeometry x="142" width="48" height="50" as="geometry">
            <mxRectangle width="48" height="50" as="alternateBounds" />
          </mxGeometry>
        </mxCell>
        <mxCell id="zB7duXIGs6mjrtSok1Mn-43" style="shape=partialRectangle;html=1;whiteSpace=wrap;collapsible=0;dropTarget=0;pointerEvents=0;fillColor=none;top=0;left=0;bottom=0;right=0;points=[[0,0.5],[1,0.5]];portConstraint=eastwest;" parent="zB7duXIGs6mjrtSok1Mn-2" vertex="1">
          <mxGeometry y="530" width="190.25" height="50" as="geometry" />
        </mxCell>
        <mxCell id="zB7duXIGs6mjrtSok1Mn-44" value="10" style="shape=partialRectangle;html=1;whiteSpace=wrap;connectable=0;fillColor=none;top=0;left=0;bottom=0;right=0;overflow=hidden;pointerEvents=1;" parent="zB7duXIGs6mjrtSok1Mn-43" vertex="1">
          <mxGeometry width="47" height="50" as="geometry">
            <mxRectangle width="47" height="50" as="alternateBounds" />
          </mxGeometry>
        </mxCell>
        <mxCell id="zB7duXIGs6mjrtSok1Mn-45" style="shape=partialRectangle;html=1;whiteSpace=wrap;connectable=0;fillColor=none;top=0;left=0;bottom=0;right=0;overflow=hidden;pointerEvents=1;" parent="zB7duXIGs6mjrtSok1Mn-43" vertex="1">
          <mxGeometry x="47" width="47" height="50" as="geometry">
            <mxRectangle width="47" height="50" as="alternateBounds" />
          </mxGeometry>
        </mxCell>
        <mxCell id="zB7duXIGs6mjrtSok1Mn-46" style="shape=partialRectangle;html=1;whiteSpace=wrap;connectable=0;fillColor=none;top=0;left=0;bottom=0;right=0;overflow=hidden;pointerEvents=1;" parent="zB7duXIGs6mjrtSok1Mn-43" vertex="1">
          <mxGeometry x="94" width="48" height="50" as="geometry">
            <mxRectangle width="48" height="50" as="alternateBounds" />
          </mxGeometry>
        </mxCell>
        <mxCell id="zB7duXIGs6mjrtSok1Mn-80" style="shape=partialRectangle;html=1;whiteSpace=wrap;connectable=0;fillColor=none;top=0;left=0;bottom=0;right=0;overflow=hidden;pointerEvents=1;" parent="zB7duXIGs6mjrtSok1Mn-43" vertex="1">
          <mxGeometry x="142" width="48" height="50" as="geometry">
            <mxRectangle width="48" height="50" as="alternateBounds" />
          </mxGeometry>
        </mxCell>
        <mxCell id="zB7duXIGs6mjrtSok1Mn-47" style="shape=partialRectangle;html=1;whiteSpace=wrap;collapsible=0;dropTarget=0;pointerEvents=0;fillColor=none;top=0;left=0;bottom=0;right=0;points=[[0,0.5],[1,0.5]];portConstraint=eastwest;" parent="zB7duXIGs6mjrtSok1Mn-2" vertex="1">
          <mxGeometry y="580" width="190.25" height="50" as="geometry" />
        </mxCell>
        <mxCell id="zB7duXIGs6mjrtSok1Mn-48" style="shape=partialRectangle;html=1;whiteSpace=wrap;connectable=0;fillColor=none;top=0;left=0;bottom=0;right=0;overflow=hidden;pointerEvents=1;" parent="zB7duXIGs6mjrtSok1Mn-47" vertex="1">
          <mxGeometry width="47" height="50" as="geometry">
            <mxRectangle width="47" height="50" as="alternateBounds" />
          </mxGeometry>
        </mxCell>
        <mxCell id="zB7duXIGs6mjrtSok1Mn-49" style="shape=partialRectangle;html=1;whiteSpace=wrap;connectable=0;fillColor=none;top=0;left=0;bottom=0;right=0;overflow=hidden;pointerEvents=1;" parent="zB7duXIGs6mjrtSok1Mn-47" vertex="1">
          <mxGeometry x="47" width="47" height="50" as="geometry">
            <mxRectangle width="47" height="50" as="alternateBounds" />
          </mxGeometry>
        </mxCell>
        <mxCell id="zB7duXIGs6mjrtSok1Mn-50" style="shape=partialRectangle;html=1;whiteSpace=wrap;connectable=0;fillColor=none;top=0;left=0;bottom=0;right=0;overflow=hidden;pointerEvents=1;" parent="zB7duXIGs6mjrtSok1Mn-47" vertex="1">
          <mxGeometry x="94" width="48" height="50" as="geometry">
            <mxRectangle width="48" height="50" as="alternateBounds" />
          </mxGeometry>
        </mxCell>
        <mxCell id="zB7duXIGs6mjrtSok1Mn-81" style="shape=partialRectangle;html=1;whiteSpace=wrap;connectable=0;fillColor=none;top=0;left=0;bottom=0;right=0;overflow=hidden;pointerEvents=1;" parent="zB7duXIGs6mjrtSok1Mn-47" vertex="1">
          <mxGeometry x="142" width="48" height="50" as="geometry">
            <mxRectangle width="48" height="50" as="alternateBounds" />
          </mxGeometry>
        </mxCell>
        <mxCell id="zB7duXIGs6mjrtSok1Mn-51" style="shape=partialRectangle;html=1;whiteSpace=wrap;collapsible=0;dropTarget=0;pointerEvents=0;fillColor=none;top=0;left=0;bottom=0;right=0;points=[[0,0.5],[1,0.5]];portConstraint=eastwest;" parent="zB7duXIGs6mjrtSok1Mn-2" vertex="1">
          <mxGeometry y="630" width="190.25" height="50" as="geometry" />
        </mxCell>
        <mxCell id="zB7duXIGs6mjrtSok1Mn-52" style="shape=partialRectangle;html=1;whiteSpace=wrap;connectable=0;fillColor=none;top=0;left=0;bottom=0;right=0;overflow=hidden;pointerEvents=1;" parent="zB7duXIGs6mjrtSok1Mn-51" vertex="1">
          <mxGeometry width="47" height="50" as="geometry">
            <mxRectangle width="47" height="50" as="alternateBounds" />
          </mxGeometry>
        </mxCell>
        <mxCell id="zB7duXIGs6mjrtSok1Mn-53" style="shape=partialRectangle;html=1;whiteSpace=wrap;connectable=0;fillColor=none;top=0;left=0;bottom=0;right=0;overflow=hidden;pointerEvents=1;" parent="zB7duXIGs6mjrtSok1Mn-51" vertex="1">
          <mxGeometry x="47" width="47" height="50" as="geometry">
            <mxRectangle width="47" height="50" as="alternateBounds" />
          </mxGeometry>
        </mxCell>
        <mxCell id="zB7duXIGs6mjrtSok1Mn-54" style="shape=partialRectangle;html=1;whiteSpace=wrap;connectable=0;fillColor=none;top=0;left=0;bottom=0;right=0;overflow=hidden;pointerEvents=1;" parent="zB7duXIGs6mjrtSok1Mn-51" vertex="1">
          <mxGeometry x="94" width="48" height="50" as="geometry">
            <mxRectangle width="48" height="50" as="alternateBounds" />
          </mxGeometry>
        </mxCell>
        <mxCell id="zB7duXIGs6mjrtSok1Mn-82" style="shape=partialRectangle;html=1;whiteSpace=wrap;connectable=0;fillColor=none;top=0;left=0;bottom=0;right=0;overflow=hidden;pointerEvents=1;" parent="zB7duXIGs6mjrtSok1Mn-51" vertex="1">
          <mxGeometry x="142" width="48" height="50" as="geometry">
            <mxRectangle width="48" height="50" as="alternateBounds" />
          </mxGeometry>
        </mxCell>
        <mxCell id="zB7duXIGs6mjrtSok1Mn-55" style="shape=partialRectangle;html=1;whiteSpace=wrap;collapsible=0;dropTarget=0;pointerEvents=0;fillColor=none;top=0;left=0;bottom=0;right=0;points=[[0,0.5],[1,0.5]];portConstraint=eastwest;" parent="zB7duXIGs6mjrtSok1Mn-2" vertex="1">
          <mxGeometry y="680" width="190.25" height="50" as="geometry" />
        </mxCell>
        <mxCell id="zB7duXIGs6mjrtSok1Mn-56" style="shape=partialRectangle;html=1;whiteSpace=wrap;connectable=0;fillColor=none;top=0;left=0;bottom=0;right=0;overflow=hidden;pointerEvents=1;" parent="zB7duXIGs6mjrtSok1Mn-55" vertex="1">
          <mxGeometry width="47" height="50" as="geometry">
            <mxRectangle width="47" height="50" as="alternateBounds" />
          </mxGeometry>
        </mxCell>
        <mxCell id="zB7duXIGs6mjrtSok1Mn-57" style="shape=partialRectangle;html=1;whiteSpace=wrap;connectable=0;fillColor=none;top=0;left=0;bottom=0;right=0;overflow=hidden;pointerEvents=1;" parent="zB7duXIGs6mjrtSok1Mn-55" vertex="1">
          <mxGeometry x="47" width="47" height="50" as="geometry">
            <mxRectangle width="47" height="50" as="alternateBounds" />
          </mxGeometry>
        </mxCell>
        <mxCell id="zB7duXIGs6mjrtSok1Mn-58" style="shape=partialRectangle;html=1;whiteSpace=wrap;connectable=0;fillColor=none;top=0;left=0;bottom=0;right=0;overflow=hidden;pointerEvents=1;" parent="zB7duXIGs6mjrtSok1Mn-55" vertex="1">
          <mxGeometry x="94" width="48" height="50" as="geometry">
            <mxRectangle width="48" height="50" as="alternateBounds" />
          </mxGeometry>
        </mxCell>
        <mxCell id="zB7duXIGs6mjrtSok1Mn-83" style="shape=partialRectangle;html=1;whiteSpace=wrap;connectable=0;fillColor=none;top=0;left=0;bottom=0;right=0;overflow=hidden;pointerEvents=1;" parent="zB7duXIGs6mjrtSok1Mn-55" vertex="1">
          <mxGeometry x="142" width="48" height="50" as="geometry">
            <mxRectangle width="48" height="50" as="alternateBounds" />
          </mxGeometry>
        </mxCell>
        <mxCell id="zB7duXIGs6mjrtSok1Mn-59" style="shape=partialRectangle;html=1;whiteSpace=wrap;collapsible=0;dropTarget=0;pointerEvents=0;fillColor=none;top=0;left=0;bottom=0;right=0;points=[[0,0.5],[1,0.5]];portConstraint=eastwest;" parent="zB7duXIGs6mjrtSok1Mn-2" vertex="1">
          <mxGeometry y="730" width="190.25" height="50" as="geometry" />
        </mxCell>
        <mxCell id="zB7duXIGs6mjrtSok1Mn-60" value="Totals" style="shape=partialRectangle;html=1;whiteSpace=wrap;connectable=0;fillColor=none;top=0;left=0;bottom=0;right=0;overflow=hidden;pointerEvents=1;" parent="zB7duXIGs6mjrtSok1Mn-59" vertex="1">
          <mxGeometry width="47" height="50" as="geometry">
            <mxRectangle width="47" height="50" as="alternateBounds" />
          </mxGeometry>
        </mxCell>
        <mxCell id="zB7duXIGs6mjrtSok1Mn-61" value="Column Sum" style="shape=partialRectangle;html=1;whiteSpace=wrap;connectable=0;fillColor=none;top=0;left=0;bottom=0;right=0;overflow=hidden;pointerEvents=1;" parent="zB7duXIGs6mjrtSok1Mn-59" vertex="1">
          <mxGeometry x="47" width="47" height="50" as="geometry">
            <mxRectangle width="47" height="50" as="alternateBounds" />
          </mxGeometry>
        </mxCell>
        <mxCell id="zB7duXIGs6mjrtSok1Mn-62" value="column sum" style="shape=partialRectangle;html=1;whiteSpace=wrap;connectable=0;fillColor=none;top=0;left=0;bottom=0;right=0;overflow=hidden;pointerEvents=1;" parent="zB7duXIGs6mjrtSok1Mn-59" vertex="1">
          <mxGeometry x="94" width="48" height="50" as="geometry">
            <mxRectangle width="48" height="50" as="alternateBounds" />
          </mxGeometry>
        </mxCell>
        <mxCell id="zB7duXIGs6mjrtSok1Mn-84" value="column sum" style="shape=partialRectangle;html=1;whiteSpace=wrap;connectable=0;fillColor=none;top=0;left=0;bottom=0;right=0;overflow=hidden;pointerEvents=1;" parent="zB7duXIGs6mjrtSok1Mn-59" vertex="1">
          <mxGeometry x="142" width="48" height="50" as="geometry">
            <mxRectangle width="48" height="50" as="alternateBounds" />
          </mxGeometry>
        </mxCell>
        <mxCell id="zB7duXIGs6mjrtSok1Mn-116" value="+" style="rounded=1;fillColor=#0057D8;strokeColor=none;html=1;fontColor=#ffffff;align=center;verticalAlign=middle;fontStyle=0;fontSize=12;sketch=0;labelBorderColor=none;" parent="8962rQQDY3VNNf6We3Pp-1" vertex="1">
          <mxGeometry x="350" y="302" width="35" height="33" as="geometry" />
        </mxCell>
        <mxCell id="zB7duXIGs6mjrtSok1Mn-118" value="+" style="rounded=1;fillColor=#0057D8;strokeColor=none;html=1;fontColor=#ffffff;align=center;verticalAlign=middle;fontStyle=0;fontSize=12;sketch=0;labelBorderColor=none;" parent="8962rQQDY3VNNf6We3Pp-1" vertex="1">
          <mxGeometry x="350" y="350" width="35" height="33" as="geometry" />
        </mxCell>
        <mxCell id="zB7duXIGs6mjrtSok1Mn-119" value="+" style="rounded=1;fillColor=#0057D8;strokeColor=none;html=1;fontColor=#ffffff;align=center;verticalAlign=middle;fontStyle=0;fontSize=12;sketch=0;labelBorderColor=none;" parent="8962rQQDY3VNNf6We3Pp-1" vertex="1">
          <mxGeometry x="350" y="450" width="35" height="33" as="geometry" />
        </mxCell>
        <mxCell id="zB7duXIGs6mjrtSok1Mn-120" value="+" style="rounded=1;fillColor=#0057D8;strokeColor=none;html=1;fontColor=#ffffff;align=center;verticalAlign=middle;fontStyle=0;fontSize=12;sketch=0;labelBorderColor=none;" parent="8962rQQDY3VNNf6We3Pp-1" vertex="1">
          <mxGeometry x="350" y="400" width="35" height="33" as="geometry" />
        </mxCell>
        <mxCell id="zB7duXIGs6mjrtSok1Mn-121" value="+" style="rounded=1;fillColor=#0057D8;strokeColor=none;html=1;fontColor=#ffffff;align=center;verticalAlign=middle;fontStyle=0;fontSize=12;sketch=0;labelBorderColor=none;" parent="8962rQQDY3VNNf6We3Pp-1" vertex="1">
          <mxGeometry x="350" y="500" width="35" height="33" as="geometry" />
        </mxCell>
        <mxCell id="zB7duXIGs6mjrtSok1Mn-123" value="+" style="rounded=1;fillColor=#0057D8;strokeColor=none;html=1;fontColor=#ffffff;align=center;verticalAlign=middle;fontStyle=0;fontSize=12;sketch=0;labelBorderColor=none;" parent="8962rQQDY3VNNf6We3Pp-1" vertex="1">
          <mxGeometry x="350" y="550" width="35" height="33" as="geometry" />
        </mxCell>
        <mxCell id="zB7duXIGs6mjrtSok1Mn-124" value="+" style="rounded=1;fillColor=#0057D8;strokeColor=none;html=1;fontColor=#ffffff;align=center;verticalAlign=middle;fontStyle=0;fontSize=12;sketch=0;labelBorderColor=none;" parent="8962rQQDY3VNNf6We3Pp-1" vertex="1">
          <mxGeometry x="350" y="600" width="35" height="33" as="geometry" />
        </mxCell>
        <mxCell id="zB7duXIGs6mjrtSok1Mn-125" value="+" style="rounded=1;fillColor=#0057D8;strokeColor=none;html=1;fontColor=#ffffff;align=center;verticalAlign=middle;fontStyle=0;fontSize=12;sketch=0;labelBorderColor=none;" parent="8962rQQDY3VNNf6We3Pp-1" vertex="1">
          <mxGeometry x="350" y="650" width="35" height="33" as="geometry" />
        </mxCell>
        <mxCell id="zB7duXIGs6mjrtSok1Mn-126" value="+" style="rounded=1;fillColor=#0057D8;strokeColor=none;html=1;fontColor=#ffffff;align=center;verticalAlign=middle;fontStyle=0;fontSize=12;sketch=0;labelBorderColor=none;" parent="8962rQQDY3VNNf6We3Pp-1" vertex="1">
          <mxGeometry x="350" y="700" width="35" height="33" as="geometry" />
        </mxCell>
        <mxCell id="zB7duXIGs6mjrtSok1Mn-127" value="+" style="rounded=1;fillColor=#0057D8;strokeColor=none;html=1;fontColor=#ffffff;align=center;verticalAlign=middle;fontStyle=0;fontSize=12;sketch=0;labelBorderColor=none;" parent="8962rQQDY3VNNf6We3Pp-1" vertex="1">
          <mxGeometry x="350" y="750" width="35" height="33" as="geometry" />
        </mxCell>
        <mxCell id="zB7duXIGs6mjrtSok1Mn-128" value="+" style="rounded=1;fillColor=#0057D8;strokeColor=none;html=1;fontColor=#ffffff;align=center;verticalAlign=middle;fontStyle=0;fontSize=12;sketch=0;labelBorderColor=none;" parent="8962rQQDY3VNNf6We3Pp-1" vertex="1">
          <mxGeometry x="350" y="800" width="35" height="33" as="geometry" />
        </mxCell>
        <mxCell id="zB7duXIGs6mjrtSok1Mn-129" value="+" style="rounded=1;fillColor=#0057D8;strokeColor=none;html=1;fontColor=#ffffff;align=center;verticalAlign=middle;fontStyle=0;fontSize=12;sketch=0;labelBorderColor=none;" parent="8962rQQDY3VNNf6We3Pp-1" vertex="1">
          <mxGeometry x="350" y="850" width="35" height="33" as="geometry" />
        </mxCell>
        <mxCell id="zB7duXIGs6mjrtSok1Mn-130" value="+" style="rounded=1;fillColor=#0057D8;strokeColor=none;html=1;fontColor=#ffffff;align=center;verticalAlign=middle;fontStyle=0;fontSize=12;sketch=0;labelBorderColor=none;" parent="8962rQQDY3VNNf6We3Pp-1" vertex="1">
          <mxGeometry x="350" y="900" width="35" height="33" as="geometry" />
        </mxCell>
        <mxCell id="zB7duXIGs6mjrtSok1Mn-131" value="-" style="rounded=1;fillColor=#f8cecc;strokeColor=#b85450;html=1;align=center;verticalAlign=middle;fontStyle=0;fontSize=12;sketch=0;labelBorderColor=none;" parent="8962rQQDY3VNNf6We3Pp-1" vertex="1">
          <mxGeometry x="399" y="302" width="35" height="33" as="geometry" />
        </mxCell>
        <mxCell id="zB7duXIGs6mjrtSok1Mn-132" value="-" style="rounded=1;fillColor=#f8cecc;strokeColor=#b85450;html=1;align=center;verticalAlign=middle;fontStyle=0;fontSize=12;sketch=0;labelBorderColor=none;" parent="8962rQQDY3VNNf6We3Pp-1" vertex="1">
          <mxGeometry x="399" y="350" width="35" height="33" as="geometry" />
        </mxCell>
        <mxCell id="zB7duXIGs6mjrtSok1Mn-133" value="-" style="rounded=1;fillColor=#f8cecc;strokeColor=#b85450;html=1;align=center;verticalAlign=middle;fontStyle=0;fontSize=12;sketch=0;labelBorderColor=none;" parent="8962rQQDY3VNNf6We3Pp-1" vertex="1">
          <mxGeometry x="399" y="400" width="35" height="33" as="geometry" />
        </mxCell>
        <mxCell id="zB7duXIGs6mjrtSok1Mn-134" value="-" style="rounded=1;fillColor=#f8cecc;strokeColor=#b85450;html=1;align=center;verticalAlign=middle;fontStyle=0;fontSize=12;sketch=0;labelBorderColor=none;" parent="8962rQQDY3VNNf6We3Pp-1" vertex="1">
          <mxGeometry x="399" y="450" width="35" height="33" as="geometry" />
        </mxCell>
        <mxCell id="zB7duXIGs6mjrtSok1Mn-135" value="-" style="rounded=1;fillColor=#f8cecc;strokeColor=#b85450;html=1;align=center;verticalAlign=middle;fontStyle=0;fontSize=12;sketch=0;labelBorderColor=none;" parent="8962rQQDY3VNNf6We3Pp-1" vertex="1">
          <mxGeometry x="399" y="500" width="35" height="33" as="geometry" />
        </mxCell>
        <mxCell id="zB7duXIGs6mjrtSok1Mn-136" value="-" style="rounded=1;fillColor=#f8cecc;strokeColor=#b85450;html=1;align=center;verticalAlign=middle;fontStyle=0;fontSize=12;sketch=0;labelBorderColor=none;" parent="8962rQQDY3VNNf6We3Pp-1" vertex="1">
          <mxGeometry x="399" y="550" width="35" height="33" as="geometry" />
        </mxCell>
        <mxCell id="zB7duXIGs6mjrtSok1Mn-137" value="-" style="rounded=1;fillColor=#f8cecc;strokeColor=#b85450;html=1;align=center;verticalAlign=middle;fontStyle=0;fontSize=12;sketch=0;labelBorderColor=none;" parent="8962rQQDY3VNNf6We3Pp-1" vertex="1">
          <mxGeometry x="399" y="600" width="35" height="33" as="geometry" />
        </mxCell>
        <mxCell id="zB7duXIGs6mjrtSok1Mn-138" value="-" style="rounded=1;fillColor=#f8cecc;strokeColor=#b85450;html=1;align=center;verticalAlign=middle;fontStyle=0;fontSize=12;sketch=0;labelBorderColor=none;" parent="8962rQQDY3VNNf6We3Pp-1" vertex="1">
          <mxGeometry x="399" y="650" width="35" height="33" as="geometry" />
        </mxCell>
        <mxCell id="zB7duXIGs6mjrtSok1Mn-139" value="-" style="rounded=1;fillColor=#f8cecc;strokeColor=#b85450;html=1;align=center;verticalAlign=middle;fontStyle=0;fontSize=12;sketch=0;labelBorderColor=none;" parent="8962rQQDY3VNNf6We3Pp-1" vertex="1">
          <mxGeometry x="399" y="700" width="35" height="33" as="geometry" />
        </mxCell>
        <mxCell id="zB7duXIGs6mjrtSok1Mn-140" value="-" style="rounded=1;fillColor=#f8cecc;strokeColor=#b85450;html=1;align=center;verticalAlign=middle;fontStyle=0;fontSize=12;sketch=0;labelBorderColor=none;" parent="8962rQQDY3VNNf6We3Pp-1" vertex="1">
          <mxGeometry x="399" y="750" width="35" height="33" as="geometry" />
        </mxCell>
        <mxCell id="zB7duXIGs6mjrtSok1Mn-141" value="-" style="rounded=1;fillColor=#f8cecc;strokeColor=#b85450;html=1;align=center;verticalAlign=middle;fontStyle=0;fontSize=12;sketch=0;labelBorderColor=none;" parent="8962rQQDY3VNNf6We3Pp-1" vertex="1">
          <mxGeometry x="399" y="800" width="35" height="33" as="geometry" />
        </mxCell>
        <mxCell id="zB7duXIGs6mjrtSok1Mn-142" value="-" style="rounded=1;fillColor=#f8cecc;strokeColor=#b85450;html=1;align=center;verticalAlign=middle;fontStyle=0;fontSize=12;sketch=0;labelBorderColor=none;" parent="8962rQQDY3VNNf6We3Pp-1" vertex="1">
          <mxGeometry x="399" y="850" width="35" height="33" as="geometry" />
        </mxCell>
        <mxCell id="zB7duXIGs6mjrtSok1Mn-143" value="-" style="rounded=1;fillColor=#f8cecc;strokeColor=#b85450;html=1;align=center;verticalAlign=middle;fontStyle=0;fontSize=12;sketch=0;labelBorderColor=none;" parent="8962rQQDY3VNNf6We3Pp-1" vertex="1">
          <mxGeometry x="399" y="900" width="35" height="33" as="geometry" />
        </mxCell>
        <mxCell id="zB7duXIGs6mjrtSok1Mn-144" value="C" style="rounded=1;fillColor=#d5e8d4;strokeColor=#82b366;html=1;align=center;verticalAlign=middle;fontStyle=0;fontSize=12;sketch=0;labelBorderColor=none;" parent="8962rQQDY3VNNf6We3Pp-1" vertex="1">
          <mxGeometry x="449" y="302" width="35" height="33" as="geometry" />
        </mxCell>
        <mxCell id="zB7duXIGs6mjrtSok1Mn-145" value="C" style="rounded=1;fillColor=#d5e8d4;strokeColor=#82b366;html=1;align=center;verticalAlign=middle;fontStyle=0;fontSize=12;sketch=0;labelBorderColor=none;" parent="8962rQQDY3VNNf6We3Pp-1" vertex="1">
          <mxGeometry x="449" y="350" width="35" height="33" as="geometry" />
        </mxCell>
        <mxCell id="zB7duXIGs6mjrtSok1Mn-146" value="C" style="rounded=1;fillColor=#d5e8d4;strokeColor=#82b366;html=1;align=center;verticalAlign=middle;fontStyle=0;fontSize=12;sketch=0;labelBorderColor=none;" parent="8962rQQDY3VNNf6We3Pp-1" vertex="1">
          <mxGeometry x="449" y="400" width="35" height="33" as="geometry" />
        </mxCell>
        <mxCell id="zB7duXIGs6mjrtSok1Mn-147" value="C" style="rounded=1;fillColor=#d5e8d4;strokeColor=#82b366;html=1;align=center;verticalAlign=middle;fontStyle=0;fontSize=12;sketch=0;labelBorderColor=none;" parent="8962rQQDY3VNNf6We3Pp-1" vertex="1">
          <mxGeometry x="449" y="450" width="35" height="33" as="geometry" />
        </mxCell>
        <mxCell id="zB7duXIGs6mjrtSok1Mn-148" value="C" style="rounded=1;fillColor=#d5e8d4;strokeColor=#82b366;html=1;align=center;verticalAlign=middle;fontStyle=0;fontSize=12;sketch=0;labelBorderColor=none;" parent="8962rQQDY3VNNf6We3Pp-1" vertex="1">
          <mxGeometry x="449" y="500" width="35" height="33" as="geometry" />
        </mxCell>
        <mxCell id="zB7duXIGs6mjrtSok1Mn-149" value="C" style="rounded=1;fillColor=#d5e8d4;strokeColor=#82b366;html=1;align=center;verticalAlign=middle;fontStyle=0;fontSize=12;sketch=0;labelBorderColor=none;" parent="8962rQQDY3VNNf6We3Pp-1" vertex="1">
          <mxGeometry x="449" y="550" width="35" height="33" as="geometry" />
        </mxCell>
        <mxCell id="zB7duXIGs6mjrtSok1Mn-150" value="C" style="rounded=1;fillColor=#d5e8d4;strokeColor=#82b366;html=1;align=center;verticalAlign=middle;fontStyle=0;fontSize=12;sketch=0;labelBorderColor=none;" parent="8962rQQDY3VNNf6We3Pp-1" vertex="1">
          <mxGeometry x="449" y="600" width="35" height="33" as="geometry" />
        </mxCell>
        <mxCell id="zB7duXIGs6mjrtSok1Mn-151" value="C" style="rounded=1;fillColor=#d5e8d4;strokeColor=#82b366;html=1;align=center;verticalAlign=middle;fontStyle=0;fontSize=12;sketch=0;labelBorderColor=none;" parent="8962rQQDY3VNNf6We3Pp-1" vertex="1">
          <mxGeometry x="449" y="650" width="35" height="33" as="geometry" />
        </mxCell>
        <mxCell id="zB7duXIGs6mjrtSok1Mn-152" value="C" style="rounded=1;fillColor=#d5e8d4;strokeColor=#82b366;html=1;align=center;verticalAlign=middle;fontStyle=0;fontSize=12;sketch=0;labelBorderColor=none;" parent="8962rQQDY3VNNf6We3Pp-1" vertex="1">
          <mxGeometry x="449" y="700" width="35" height="33" as="geometry" />
        </mxCell>
        <mxCell id="zB7duXIGs6mjrtSok1Mn-153" value="C" style="rounded=1;fillColor=#d5e8d4;strokeColor=#82b366;html=1;align=center;verticalAlign=middle;fontStyle=0;fontSize=12;sketch=0;labelBorderColor=none;" parent="8962rQQDY3VNNf6We3Pp-1" vertex="1">
          <mxGeometry x="449" y="750" width="35" height="33" as="geometry" />
        </mxCell>
        <mxCell id="zB7duXIGs6mjrtSok1Mn-154" value="C" style="rounded=1;fillColor=#d5e8d4;strokeColor=#82b366;html=1;align=center;verticalAlign=middle;fontStyle=0;fontSize=12;sketch=0;labelBorderColor=none;" parent="8962rQQDY3VNNf6We3Pp-1" vertex="1">
          <mxGeometry x="449" y="800" width="35" height="33" as="geometry" />
        </mxCell>
        <mxCell id="zB7duXIGs6mjrtSok1Mn-155" value="C" style="rounded=1;fillColor=#d5e8d4;strokeColor=#82b366;html=1;align=center;verticalAlign=middle;fontStyle=0;fontSize=12;sketch=0;labelBorderColor=none;" parent="8962rQQDY3VNNf6We3Pp-1" vertex="1">
          <mxGeometry x="449" y="850" width="35" height="33" as="geometry" />
        </mxCell>
        <mxCell id="zB7duXIGs6mjrtSok1Mn-156" value="C" style="rounded=1;fillColor=#d5e8d4;strokeColor=#82b366;html=1;align=center;verticalAlign=middle;fontStyle=0;fontSize=12;sketch=0;labelBorderColor=none;" parent="8962rQQDY3VNNf6We3Pp-1" vertex="1">
          <mxGeometry x="449" y="900" width="35" height="33" as="geometry" />
        </mxCell>
        <mxCell id="8962rQQDY3VNNf6We3Pp-27" value="" style="strokeWidth=1;shadow=0;dashed=0;align=center;html=1;shape=mxgraph.mockup.buttons.multiButton;mainText=;subText=;fontSize=13;fontColor=#000000;" parent="8962rQQDY3VNNf6We3Pp-1" vertex="1">
          <mxGeometry x="113" y="134" width="371" height="59" as="geometry" />
        </mxCell>
        <mxCell id="8962rQQDY3VNNf6We3Pp-28" value="&lt;font color=&quot;#000000&quot;&gt;Golf Scorecard&lt;/font&gt;" style="strokeWidth=1;shadow=0;dashed=0;align=center;html=1;shape=mxgraph.mockup.anchor;fontSize=37;fontColor=#ffffff;fontStyle=1;whiteSpace=wrap;" parent="8962rQQDY3VNNf6We3Pp-27" vertex="1">
          <mxGeometry width="371" height="59" as="geometry" />
        </mxCell>
        <mxCell id="8962rQQDY3VNNf6We3Pp-29" value="" style="strokeWidth=1;shadow=0;dashed=0;align=center;html=1;shape=mxgraph.mockup.anchor;fontSize=12;fontColor=#ffffff;fontStyle=1;whiteSpace=wrap;" parent="8962rQQDY3VNNf6We3Pp-27" vertex="1">
          <mxGeometry y="35.39999999999999" width="371" height="11.8" as="geometry" />
        </mxCell>
      </root>
    </mxGraphModel>
  </diagram>
</mxfile>
